<svg xmlns="http://www.w3.org/2000/svg" version="1.1" xmlns:xlink="http://www.w3.org/1999/xlink" xmlns:svgjs="http://svgjs.dev/svgjs" width="1000" height="126" viewBox="0 0 1000 126"><g transform="matrix(1,0,0,1,-0.606058682247351,-0.03704361290319724)"><svg viewBox="0 0 396 50" data-background-color="#6300ff" preserveAspectRatio="xMidYMid meet" height="126" width="1000" xmlns="http://www.w3.org/2000/svg" xmlns:xlink="http://www.w3.org/1999/xlink"><g id="tight-bounds" transform="matrix(1,0,0,1,0.2399992381699576,0.0146998463901582)"><svg viewBox="0 0 395.52 49.970600307219655" height="49.970600307219655" width="395.52"><g><svg viewBox="0 0 468.71999999999997 59.218799999999995" height="49.970600307219655" width="395.52"><g><svg viewBox="0 0 468.71999999999997 59.218799999999995" height="59.218799999999995" width="468.71999999999997"><g id="textblocktransform"><svg viewBox="0 0 468.71999999999997 59.218799999999995" height="59.218799999999995" width="468.71999999999997" id="textblock"><g><svg viewBox="0 0 468.71999999999997 59.218799999999995" height="59.218799999999995" width="468.71999999999997"><g><svg><g></g><g></g></svg></g><g><svg><g></g><g><svg></svg></g></svg></g><g id="text-0"><svg viewBox="0 0 468.71999999999997 59.218799999999995" height="59.218799999999995" width="468.71999999999997"><g><svg xmlns="http://www.w3.org/2000/svg" xmlns:xlink="http://www.w3.org/1999/xlink" version="1.1" x="0" y="0" viewBox="0 0 100 100" enable-background="new 0 0 100 100" xml:space="preserve" height="59.218799999999995" width="59.218799999999995" class="icon-s-0" data-fill-palette-color="accent" id="s-0"><path d="M50 0C22.4 0 0 22.4 0 50c0 27.6 22.4 50 50 50s50-22.4 50-50C100 22.4 77.6 0 50 0zM36.1 51.1l-3.1 1 1.9 2.6c0.9 1.2 0.6 2.9-0.6 3.8-0.5 0.3-1 0.5-1.6 0.5-0.8 0-1.7-0.4-2.2-1.1l-1.9-2.6-1.9 2.6c-0.5 0.7-1.3 1.1-2.2 1.1-0.5 0-1.1-0.2-1.6-0.5-1.2-0.9-1.5-2.6-0.6-3.8l1.9-2.6-3.1-1c-1.4-0.5-2.2-2-1.7-3.4 0.5-1.4 2-2.2 3.4-1.7l3.1 1v-3.2c0-1.5 1.2-2.7 2.7-2.7 1.5 0 2.7 1.2 2.7 2.7V47l3.1-1c1.4-0.5 2.9 0.3 3.4 1.7C38.3 49.1 37.5 50.6 36.1 51.1zM57.4 51.1l-3.1 1 1.9 2.6c0.9 1.2 0.6 2.9-0.6 3.8-0.5 0.3-1 0.5-1.6 0.5-0.8 0-1.7-0.4-2.2-1.1L50 55.2l-1.9 2.6c-0.5 0.7-1.3 1.1-2.2 1.1-0.5 0-1.1-0.2-1.6-0.5-1.2-0.9-1.5-2.6-0.6-3.8l1.9-2.6-3.1-1c-1.4-0.5-2.2-2-1.7-3.4 0.5-1.4 2-2.2 3.4-1.7l3.1 1v-3.2c0-1.5 1.2-2.7 2.7-2.7 1.5 0 2.7 1.2 2.7 2.7V47l3.1-1c1.4-0.5 2.9 0.3 3.4 1.7C59.6 49.1 58.8 50.6 57.4 51.1zM78.8 51.1l-3.1 1 1.9 2.6c0.9 1.2 0.6 2.9-0.6 3.8-0.5 0.3-1 0.5-1.6 0.5-0.8 0-1.7-0.4-2.2-1.1l-1.9-2.6-1.9 2.6c-0.5 0.7-1.3 1.1-2.2 1.1-0.5 0-1.1-0.2-1.6-0.5-1.2-0.9-1.5-2.6-0.6-3.8l1.9-2.6-3.1-1c-1.4-0.5-2.2-2-1.7-3.4 0.5-1.4 2-2.2 3.4-1.7l3.1 1v-3.2c0-1.5 1.2-2.7 2.7-2.7s2.7 1.2 2.7 2.7V47l3.1-1c1.4-0.5 2.9 0.3 3.4 1.7C81 49.1 80.2 50.6 78.8 51.1z" fill="#ffffff" data-fill-palette-color="accent"></path></svg></g><g transform="matrix(1,0,0,1,73.19999999999999,4.5035519250780425)"><svg width="395.52" viewBox="2.8499999046325684 -35.79999923706055 288.2799987792969 36.599998474121094" height="50.21169614984391" data-palette-color="#ffffff"><path d="M19.7-35Q24.55-35 28.15-33.4 31.75-31.8 33.7-28.8 35.65-25.8 35.65-21.8L35.65-21.8Q35.65-17.8 33.7-14.8 31.75-11.8 28.15-10.2 24.55-8.6 19.7-8.6L19.7-8.6 14.65-8.6 14.65 0 2.85 0 2.85-35 19.7-35ZM18.95-17.7Q21.35-17.7 22.55-18.78 23.75-19.85 23.75-21.8L23.75-21.8Q23.75-23.75 22.55-24.83 21.35-25.9 18.95-25.9L18.95-25.9 14.65-25.9 14.65-17.7 18.95-17.7ZM56.2-35.8Q61.3-35.8 65.2-33.77 69.1-31.75 71.27-27.88 73.45-24 73.45-18.65L73.45-18.65 73.45 0 61.65 0 61.65-7.05 50.55-7.05 50.55 0 38.95 0 38.95-18.65Q38.95-24 41.12-27.88 43.3-31.75 47.2-33.77 51.1-35.8 56.2-35.8L56.2-35.8ZM50.55-15.95L61.65-15.95 61.65-19.65Q61.65-22.9 60.12-24.58 58.6-26.25 56.1-26.25L56.1-26.25Q53.6-26.25 52.07-24.58 50.55-22.9 50.55-19.65L50.55-19.65 50.55-15.95ZM91.9 0.8Q87.55 0.8 83.42-0.18 79.3-1.15 76.65-2.8L76.65-2.8 80.45-11.4Q82.95-9.95 86.05-9.08 89.15-8.2 92-8.2L92-8.2Q94.45-8.2 95.5-8.68 96.55-9.15 96.55-10.1L96.55-10.1Q96.55-11.2 95.17-11.75 93.8-12.3 90.65-12.95L90.65-12.95Q86.59-13.8 83.9-14.78 81.2-15.75 79.2-17.98 77.2-20.2 77.2-24L77.2-24Q77.2-27.3 79.05-30 80.9-32.7 84.57-34.25 88.25-35.8 93.5-35.8L93.5-35.8Q97.09-35.8 100.57-35.02 104.05-34.25 106.7-32.75L106.7-32.75 103.15-24.2Q98-26.8 93.4-26.8L93.4-26.8Q88.84-26.8 88.84-24.6L88.84-24.6Q88.84-23.55 90.2-23.03 91.55-22.5 94.65-21.9L94.65-21.9Q98.65-21.15 101.4-20.18 104.15-19.2 106.17-17 108.2-14.8 108.2-11L108.2-11Q108.2-7.7 106.34-5.03 104.5-2.35 100.82-0.78 97.15 0.8 91.9 0.8L91.9 0.8ZM124.74 0.8Q120.39 0.8 116.27-0.18 112.14-1.15 109.49-2.8L109.49-2.8 113.29-11.4Q115.79-9.95 118.89-9.08 121.99-8.2 124.84-8.2L124.84-8.2Q127.29-8.2 128.34-8.68 129.39-9.15 129.39-10.1L129.39-10.1Q129.39-11.2 128.02-11.75 126.64-12.3 123.49-12.95L123.49-12.95Q119.44-13.8 116.74-14.78 114.04-15.75 112.04-17.98 110.04-20.2 110.04-24L110.04-24Q110.04-27.3 111.89-30 113.74-32.7 117.42-34.25 121.09-35.8 126.34-35.8L126.34-35.8Q129.94-35.8 133.42-35.02 136.89-34.25 139.54-32.75L139.54-32.75 135.99-24.2Q130.84-26.8 126.24-26.8L126.24-26.8Q121.69-26.8 121.69-24.6L121.69-24.6Q121.69-23.55 123.04-23.03 124.39-22.5 127.49-21.9L127.49-21.9Q131.49-21.15 134.24-20.18 136.99-19.2 139.02-17 141.04-14.8 141.04-11L141.04-11Q141.04-7.7 139.19-5.03 137.34-2.35 133.67-0.78 129.99 0.8 124.74 0.8L124.74 0.8ZM144.54 0L144.54-35 156.34-35 156.34-9.15 172.14-9.15 172.14 0 144.54 0ZM193.24 0.8Q187.59 0.8 183.09-1.55 178.59-3.9 176.04-8.08 173.49-12.25 173.49-17.5L173.49-17.5Q173.49-22.75 176.04-26.93 178.59-31.1 183.09-33.45 187.59-35.8 193.24-35.8L193.24-35.8Q198.89-35.8 203.39-33.45 207.89-31.1 210.44-26.93 212.99-22.75 212.99-17.5L212.99-17.5Q212.99-12.25 210.44-8.08 207.89-3.9 203.39-1.55 198.89 0.8 193.24 0.8L193.24 0.8ZM193.24-8.75Q195.44-8.75 197.21-9.83 198.99-10.9 200.04-12.88 201.09-14.85 201.09-17.5L201.09-17.5Q201.09-20.15 200.04-22.13 198.99-24.1 197.21-25.18 195.44-26.25 193.24-26.25L193.24-26.25Q191.04-26.25 189.26-25.18 187.49-24.1 186.44-22.13 185.39-20.15 185.39-17.5L185.39-17.5Q185.39-14.85 186.44-12.88 187.49-10.9 189.26-9.83 191.04-8.75 193.24-8.75L193.24-8.75ZM235.38 0.8Q229.84 0.8 225.38-1.53 220.94-3.85 218.41-8.03 215.88-12.2 215.88-17.5L215.88-17.5Q215.88-22.8 218.41-26.98 220.94-31.15 225.38-33.48 229.84-35.8 235.38-35.8L235.38-35.8Q240.49-35.8 244.49-34 248.49-32.2 251.09-28.8L251.09-28.8 243.63-22.15Q240.38-26.25 235.99-26.25L235.99-26.25Q232.28-26.25 230.03-23.88 227.78-21.5 227.78-17.5L227.78-17.5Q227.78-13.5 230.03-11.13 232.28-8.75 235.99-8.75L235.99-8.75Q240.38-8.75 243.63-12.85L243.63-12.85 251.09-6.2Q248.49-2.8 244.49-1 240.49 0.8 235.38 0.8L235.38 0.8ZM277.48 0L268.73-11.6 266.08-8.65 266.08 0 254.48 0 254.48-35 266.08-35 266.08-22.3 277.58-35 290.43-35 276.43-19.6 291.13 0 277.48 0Z" opacity="1" transform="matrix(1,0,0,1,0,0)" fill="#ffffff" class="undefined-text-0" data-fill-palette-color="primary"></path></svg></g></svg></g></svg></g></svg></g></svg></g></svg></g><defs></defs></svg><rect width="395.52" height="49.970600307219655" fill="none" stroke="none" visibility="hidden"></rect></g></svg></g></svg>