<svg xmlns="http://www.w3.org/2000/svg" version="1.1" xmlns:xlink="http://www.w3.org/1999/xlink" xmlns:svgjs="http://svgjs.dev/svgjs" width="128" height="128" viewBox="0 0 128 128"><g transform="matrix(0.8046875,0,0,0.8046875,12.760752631578946,12.760752631578946)"><svg viewBox="0 0 95 95" data-background-color="#6300ff" preserveAspectRatio="xMidYMid meet" height="128" width="128" xmlns="http://www.w3.org/2000/svg" xmlns:xlink="http://www.w3.org/1999/xlink"><g id="tight-bounds" transform="matrix(1,0,0,1,-0.24049999999999727,-0.24049999999999727)"><svg viewBox="0 0 95.481 95.481" height="95.481" width="95.481"><g><svg viewBox="0 0 95.481 95.481" height="95.481" width="95.481"><g><svg viewBox="0 0 95.481 95.481" height="95.481" width="95.481"><g id="textblocktransform"><svg viewBox="0 0 95.481 95.481" height="95.481" width="95.481" id="textblock"><g><svg viewBox="0 0 95.481 95.481" height="95.481" width="95.481"><g><svg viewBox="0 0 95.481 95.481" height="95.481" width="95.481"><g><svg xmlns="http://www.w3.org/2000/svg" xmlns:xlink="http://www.w3.org/1999/xlink" version="1.1" x="0" y="0" viewBox="0 0 100 100" enable-background="new 0 0 100 100" xml:space="preserve" height="95.481" width="95.481" class="icon-icon-0" data-fill-palette-color="accent" id="icon-0"><path d="M50 0C22.4 0 0 22.4 0 50c0 27.6 22.4 50 50 50s50-22.4 50-50C100 22.4 77.6 0 50 0zM36.1 51.1l-3.1 1 1.9 2.6c0.9 1.2 0.6 2.9-0.6 3.8-0.5 0.3-1 0.5-1.6 0.5-0.8 0-1.7-0.4-2.2-1.1l-1.9-2.6-1.9 2.6c-0.5 0.7-1.3 1.1-2.2 1.1-0.5 0-1.1-0.2-1.6-0.5-1.2-0.9-1.5-2.6-0.6-3.8l1.9-2.6-3.1-1c-1.4-0.5-2.2-2-1.7-3.4 0.5-1.4 2-2.2 3.4-1.7l3.1 1v-3.2c0-1.5 1.2-2.7 2.7-2.7 1.5 0 2.7 1.2 2.7 2.7V47l3.1-1c1.4-0.5 2.9 0.3 3.4 1.7C38.3 49.1 37.5 50.6 36.1 51.1zM57.4 51.1l-3.1 1 1.9 2.6c0.9 1.2 0.6 2.9-0.6 3.8-0.5 0.3-1 0.5-1.6 0.5-0.8 0-1.7-0.4-2.2-1.1L50 55.2l-1.9 2.6c-0.5 0.7-1.3 1.1-2.2 1.1-0.5 0-1.1-0.2-1.6-0.5-1.2-0.9-1.5-2.6-0.6-3.8l1.9-2.6-3.1-1c-1.4-0.5-2.2-2-1.7-3.4 0.5-1.4 2-2.2 3.4-1.7l3.1 1v-3.2c0-1.5 1.2-2.7 2.7-2.7 1.5 0 2.7 1.2 2.7 2.7V47l3.1-1c1.4-0.5 2.9 0.3 3.4 1.7C59.6 49.1 58.8 50.6 57.4 51.1zM78.8 51.1l-3.1 1 1.9 2.6c0.9 1.2 0.6 2.9-0.6 3.8-0.5 0.3-1 0.5-1.6 0.5-0.8 0-1.7-0.4-2.2-1.1l-1.9-2.6-1.9 2.6c-0.5 0.7-1.3 1.1-2.2 1.1-0.5 0-1.1-0.2-1.6-0.5-1.2-0.9-1.5-2.6-0.6-3.8l1.9-2.6-3.1-1c-1.4-0.5-2.2-2-1.7-3.4 0.5-1.4 2-2.2 3.4-1.7l3.1 1v-3.2c0-1.5 1.2-2.7 2.7-2.7s2.7 1.2 2.7 2.7V47l3.1-1c1.4-0.5 2.9 0.3 3.4 1.7C81 49.1 80.2 50.6 78.8 51.1z" fill="#000000" data-fill-palette-color="accent"></path></svg></g></svg></g></svg></g></svg></g></svg></g></svg></g><defs></defs></svg><rect width="95.481" height="95.481" fill="none" stroke="none" visibility="hidden"></rect></g></svg></g></svg>